<svg viewBox="0 0 300 520" xmlns="http://www.w3.org/2000/svg">
<style>
  .p{stroke:#fff;stroke-width:0.7;stroke-linejoin:round;fill-rule:evenodd;}
  .pd{fill:#E1DFDD;} .ph{fill:#D44B1A;} .pl{fill:#f2c9ba;stroke:#D44B1A;stroke-width:0.5;}
  .lbl{font-family:"DM Sans",system-ui,sans-serif;text-anchor:middle;dominant-baseline:central;font-size:7.5px;fill:#5a514b;}
  .lbh{fill:#fff;font-weight:600;font-size:6.5px;}
  .lbl2{fill:#8a2f0a;font-weight:600;}
  .sea{font-family:"DM Sans",system-ui,sans-serif;fill:#9ecae1;font-size:8px;font-style:italic;text-anchor:middle;}
  .ttl{font-family:"DM Sans",system-ui,sans-serif;font-size:10.5px;font-weight:600;fill:#3d3630;}
  .sub{font-family:"DM Sans",system-ui,sans-serif;font-size:7px;fill:#9a8f88;}
  .leg{font-family:"DM Sans",system-ui,sans-serif;font-size:7.5px;fill:#7D7469;}
</style>
  <path class="p ph" d="M 275.9,22.4 L 278.1,23.8 L 276.2,24.2 L 276.4,25.1 L 279.1,25.4 L 280.5,27.7 L 276.5,29.3 L 280.0,31.3 L 276.7,34.4 L 276.4,35.7 L 278.6,36.5 L 277.1,40.7 L 273.7,44.2 L 272.3,43.4 L 276.2,46.2 L 274.7,53.2 L 278.3,61.5 L 276.9,62.7 L 277.0,67.8 L 275.9,67.4 L 275.8,68.3 L 277.3,69.9 L 276.3,71.8 L 278.7,71.8 L 275.7,74.6 L 278.7,75.3 L 278.5,77.8 L 280.0,78.6 L 278.6,80.2 L 280.3,80.9 L 279.0,82.6 L 278.1,81.4 L 277.2,85.6 L 277.0,84.6 L 276.6,84.3 L 274.3,85.4 L 276.6,88.8 L 277.2,87.2 L 276.4,86.4 L 279.2,86.7 L 279.1,96.9 L 277.6,100.8 L 266.6,99.0 L 260.1,105.1 L 257.4,104.7 L 251.3,107.2 L 249.1,109.6 L 232.7,116.6 L 227.1,117.8 L 221.9,116.8 L 218.9,113.4 L 215.9,107.5 L 215.3,101.7 L 212.5,98.2 L 216.4,95.2 L 217.2,90.7 L 214.4,91.0 L 209.9,88.5 L 212.7,83.3 L 213.4,73.5 L 216.9,69.7 L 217.3,66.3 L 221.5,64.0 L 223.5,47.7 L 228.0,43.3 L 234.6,40.2 L 244.1,40.3 L 251.6,35.1 L 263.9,30.8 L 275.9,22.4 Z"/>
  <path class="p pd" d="M 66.9,308.0 L 76.3,313.1 L 78.5,312.5 L 80.5,314.9 L 82.7,315.1 L 86.0,312.3 L 88.6,313.0 L 85.1,318.0 L 86.0,322.7 L 89.8,326.6 L 90.4,330.1 L 89.4,332.7 L 90.9,337.0 L 89.2,337.0 L 87.8,341.8 L 89.4,344.8 L 97.8,351.0 L 98.9,354.6 L 103.1,359.0 L 104.5,363.0 L 102.9,364.8 L 105.7,369.1 L 104.2,372.3 L 105.9,373.3 L 104.7,378.3 L 105.4,383.6 L 106.9,384.1 L 107.0,391.4 L 110.8,396.5 L 118.2,394.3 L 116.2,396.6 L 118.7,399.2 L 114.8,401.3 L 114.9,403.7 L 119.4,405.5 L 84.4,420.0 L 84.2,416.2 L 80.6,415.1 L 80.9,411.8 L 78.7,410.6 L 79.7,402.8 L 77.4,403.2 L 73.5,395.9 L 73.7,392.9 L 65.3,388.7 L 56.8,387.2 L 53.5,388.5 L 52.4,386.6 L 51.6,380.2 L 48.7,378.4 L 46.6,371.2 L 43.3,367.2 L 43.4,359.0 L 36.6,338.0 L 66.9,308.0 Z"/>
  <path class="p pl" d="M 136.5,298.4 L 135.4,301.7 L 133.4,302.4 L 134.9,303.0 L 135.9,305.5 L 134.4,306.1 L 135.2,308.0 L 136.2,306.3 L 136.7,310.5 L 140.4,316.8 L 141.9,332.7 L 144.1,332.0 L 145.3,329.2 L 146.8,332.7 L 147.4,329.9 L 146.6,348.1 L 147.4,351.9 L 147.4,350.8 L 148.9,351.9 L 145.9,358.7 L 143.8,374.2 L 143.5,374.2 L 143.6,374.1 L 143.5,373.9 L 143.5,372.4 L 143.4,372.3 L 141.9,372.8 L 143.0,373.2 L 141.8,381.6 L 143.3,377.0 L 145.7,378.3 L 145.7,375.4 L 147.7,377.9 L 145.6,385.8 L 137.1,397.7 L 119.4,405.5 L 114.9,403.7 L 114.8,401.3 L 118.7,399.2 L 116.2,396.6 L 118.2,394.3 L 110.8,396.5 L 107.0,391.4 L 106.9,384.1 L 105.4,383.6 L 104.7,378.3 L 105.9,373.3 L 104.2,372.3 L 105.7,369.1 L 102.9,364.8 L 104.5,363.0 L 97.8,351.0 L 89.4,344.8 L 87.8,341.8 L 89.2,337.0 L 90.9,337.0 L 89.4,332.7 L 90.4,330.1 L 89.8,326.6 L 86.0,322.7 L 85.1,318.0 L 87.1,313.8 L 94.3,309.7 L 103.5,310.6 L 106.1,307.7 L 111.4,307.9 L 113.4,306.4 L 116.0,307.8 L 120.5,303.2 L 124.2,301.8 L 126.8,302.9 L 132.0,299.1 L 136.5,298.4 Z"/>
  <path class="p pd" d="M 101.9,176.3 L 107.3,182.1 L 110.4,182.4 L 112.5,184.7 L 119.1,185.0 L 121.2,186.9 L 119.3,191.9 L 114.0,193.8 L 111.6,198.2 L 113.1,199.3 L 110.7,208.0 L 112.5,212.1 L 111.9,215.4 L 114.6,217.2 L 113.7,224.6 L 111.9,223.9 L 110.2,225.8 L 107.7,222.2 L 105.7,222.1 L 101.9,226.4 L 104.0,232.6 L 101.2,232.6 L 100.0,235.0 L 100.1,237.6 L 108.6,244.1 L 105.4,252.3 L 105.3,261.5 L 100.2,261.9 L 103.1,266.1 L 102.5,270.4 L 100.5,272.2 L 96.6,270.2 L 90.9,274.8 L 94.3,279.6 L 93.2,283.6 L 98.2,286.8 L 99.8,291.4 L 104.4,293.8 L 104.2,299.4 L 109.9,301.4 L 104.8,310.3 L 94.9,309.6 L 91.1,312.2 L 86.0,312.3 L 82.7,315.1 L 80.5,314.9 L 78.5,312.5 L 76.4,313.1 L 68.5,309.4 L 64.3,303.2 L 68.4,297.0 L 67.8,288.7 L 72.2,287.3 L 77.6,279.8 L 77.6,275.1 L 81.7,273.3 L 82.6,266.4 L 79.7,264.8 L 80.2,263.0 L 76.6,263.6 L 76.9,258.4 L 75.1,257.8 L 77.9,248.2 L 76.8,245.7 L 73.5,246.1 L 73.1,241.2 L 79.3,239.3 L 79.9,237.1 L 77.6,232.7 L 81.5,231.3 L 82.7,228.1 L 79.3,218.4 L 82.3,208.3 L 80.0,205.0 L 83.6,195.0 L 93.2,178.6 L 101.9,176.3 Z"/>
  <path class="p pd" d="M 56.8,387.2 L 65.3,388.7 L 73.7,392.9 L 73.5,395.9 L 77.4,403.2 L 79.7,402.8 L 78.4,405.3 L 78.9,411.3 L 80.9,411.8 L 80.6,415.1 L 84.3,416.5 L 84.4,420.0 L 75.9,426.6 L 74.4,433.8 L 73.9,432.0 L 73.1,432.5 L 73.0,433.3 L 69.6,432.1 L 66.3,439.1 L 69.7,439.8 L 70.7,438.4 L 72.6,442.6 L 76.5,445.6 L 77.9,445.4 L 77.4,444.7 L 77.5,443.0 L 79.9,439.7 L 78.1,461.6 L 58.3,461.2 L 57.0,437.6 L 54.8,437.4 L 53.0,432.9 L 54.9,427.4 L 55.6,413.0 L 53.5,388.5 L 56.8,387.2 Z"/>
  <path class="p pd" d="M 266.9,99.0 L 269.5,100.4 L 274.7,99.3 L 279.5,101.8 L 277.8,104.1 L 279.9,111.7 L 278.9,113.4 L 280.5,114.1 L 279.8,117.2 L 278.4,117.2 L 277.5,118.0 L 279.4,119.2 L 279.1,119.7 L 279.4,120.7 L 279.8,120.9 L 280.1,119.1 L 282.6,118.9 L 283.0,122.1 L 281.4,123.5 L 280.5,122.1 L 280.0,122.1 L 281.3,125.7 L 280.1,125.6 L 279.9,129.3 L 281.4,125.4 L 284.9,124.2 L 285.4,127.0 L 284.3,127.2 L 283.7,128.0 L 285.7,127.7 L 284.7,129.9 L 285.6,135.3 L 280.9,137.2 L 280.8,135.4 L 280.4,135.5 L 280.8,137.5 L 284.1,139.6 L 280.5,138.5 L 282.4,141.8 L 276.9,144.0 L 278.6,144.9 L 280.0,143.4 L 281.6,146.2 L 278.6,152.6 L 265.6,166.1 L 267.4,165.1 L 264.5,170.8 L 261.3,172.4 L 261.1,170.5 L 260.0,172.8 L 257.4,172.7 L 258.8,173.5 L 257.9,174.4 L 258.7,176.9 L 260.3,177.4 L 245.5,186.4 L 243.8,184.3 L 243.2,186.2 L 244.8,186.6 L 241.4,189.7 L 237.3,182.5 L 238.8,177.1 L 235.6,171.4 L 235.5,167.1 L 229.5,157.4 L 227.1,157.3 L 221.1,151.7 L 216.6,151.2 L 215.3,148.6 L 210.1,145.8 L 201.7,145.8 L 198.8,143.0 L 196.0,144.6 L 195.1,142.3 L 193.7,143.1 L 190.3,139.6 L 177.5,139.6 L 184.1,132.1 L 194.1,128.0 L 198.1,123.5 L 201.5,122.6 L 201.3,121.1 L 207.8,120.0 L 209.7,121.8 L 223.0,116.6 L 230.3,117.5 L 249.1,109.6 L 251.3,107.2 L 257.4,104.7 L 260.1,105.1 L 266.9,99.0 Z"/>
  <path class="p pd" d="M 207.2,43.7 L 218.5,43.1 L 224.3,46.5 L 222.2,51.4 L 221.5,64.0 L 217.3,66.3 L 216.9,69.7 L 213.4,73.5 L 212.7,83.3 L 209.9,88.5 L 214.4,91.0 L 217.2,90.7 L 216.4,95.2 L 212.5,98.2 L 215.3,101.7 L 215.9,107.5 L 218.9,113.4 L 222.1,116.8 L 209.7,121.8 L 207.8,120.0 L 201.3,121.1 L 201.5,122.6 L 198.1,123.5 L 194.1,128.0 L 189.3,129.0 L 182.4,133.5 L 175.5,143.6 L 168.5,147.3 L 166.3,149.9 L 166.5,152.2 L 155.4,151.2 L 153.8,144.1 L 157.1,136.9 L 156.0,136.8 L 156.0,131.1 L 129.8,99.9 L 122.8,100.0 L 120.8,96.6 L 120.7,81.0 L 116.2,66.5 L 123.6,55.7 L 123.7,50.5 L 146.6,50.7 L 150.0,50.2 L 155.2,46.3 L 164.0,49.8 L 165.0,54.0 L 172.1,53.3 L 172.8,55.3 L 174.3,53.7 L 177.2,53.9 L 180.3,50.3 L 195.5,53.5 L 205.0,49.9 L 207.2,43.7 Z"/>
  <path class="p pl" d="M 121.2,186.9 L 128.1,190.7 L 137.8,209.6 L 142.3,210.7 L 145.5,217.8 L 154.7,221.7 L 156.5,225.4 L 161.2,228.7 L 163.4,234.5 L 161.7,237.9 L 164.2,239.2 L 162.2,243.2 L 158.8,243.7 L 159.7,243.0 L 160.0,241.9 L 160.0,241.7 L 151.0,248.4 L 142.6,258.8 L 132.8,266.8 L 129.0,268.3 L 128.0,266.0 L 125.1,264.1 L 124.3,264.7 L 124.3,264.8 L 124.3,265.0 L 125.0,265.7 L 126.7,266.6 L 127.3,268.0 L 126.3,269.2 L 127.4,276.1 L 124.8,277.1 L 125.8,278.4 L 126.4,278.2 L 124.1,281.1 L 125.5,282.5 L 124.4,283.2 L 124.3,282.8 L 123.9,283.2 L 125.8,285.1 L 124.4,286.2 L 124.5,288.0 L 126.4,286.2 L 129.2,289.5 L 127.8,290.9 L 130.6,289.9 L 129.8,291.0 L 129.8,292.7 L 130.4,291.1 L 133.0,291.6 L 132.1,292.8 L 133.8,293.7 L 132.8,293.8 L 132.2,294.3 L 133.9,294.4 L 135.0,297.1 L 134.3,297.7 L 134.5,298.6 L 126.8,302.9 L 124.2,301.8 L 119.1,303.9 L 116.0,307.8 L 113.4,306.4 L 107.3,307.8 L 109.9,301.4 L 104.2,299.4 L 104.4,293.8 L 99.8,291.4 L 98.2,286.8 L 93.2,283.6 L 94.3,279.6 L 90.9,274.8 L 96.6,270.2 L 100.5,272.2 L 102.5,270.4 L 103.1,266.1 L 100.2,261.9 L 105.3,261.5 L 105.4,252.3 L 108.6,244.1 L 100.1,237.6 L 100.0,235.0 L 101.2,232.6 L 104.0,232.6 L 101.9,226.4 L 105.7,222.1 L 107.7,222.2 L 110.2,225.8 L 111.9,223.9 L 113.7,224.6 L 114.6,217.2 L 111.9,215.4 L 112.5,212.1 L 110.7,208.0 L 113.1,199.3 L 111.6,198.2 L 114.0,193.8 L 119.3,191.9 L 121.2,186.9 Z"/>
  <path class="p pd" d="M 87.8,114.1 L 89.8,119.0 L 98.4,129.5 L 99.7,126.5 L 101.8,127.9 L 104.8,125.8 L 109.3,126.2 L 116.3,123.5 L 121.1,128.9 L 123.3,139.7 L 122.0,141.7 L 122.8,146.9 L 118.6,150.8 L 119.0,155.7 L 114.1,160.5 L 113.7,163.6 L 118.1,166.9 L 118.3,172.8 L 121.9,174.2 L 122.5,176.8 L 126.7,179.5 L 131.0,185.6 L 137.2,188.0 L 137.5,190.6 L 134.6,193.5 L 135.7,195.7 L 141.1,196.0 L 141.4,210.9 L 137.8,209.6 L 128.1,190.7 L 119.1,185.0 L 112.5,184.7 L 110.4,182.4 L 107.3,182.1 L 101.6,176.1 L 95.5,177.1 L 92.3,179.8 L 83.6,195.0 L 82.3,201.4 L 76.5,190.2 L 78.6,189.5 L 80.6,184.3 L 74.6,184.5 L 73.1,183.7 L 73.4,181.6 L 62.0,177.3 L 52.5,176.6 L 47.9,171.3 L 39.8,170.1 L 36.0,166.0 L 32.4,165.5 L 28.5,167.5 L 26.5,165.9 L 13.5,165.9 L 12.5,148.8 L 9.2,145.4 L 8.2,139.6 L 87.8,114.1 Z"/>
  <path class="p pd" d="M 190.8,140.2 L 193.7,143.1 L 195.1,142.3 L 196.0,144.6 L 198.8,143.0 L 201.7,145.8 L 210.8,146.0 L 215.3,148.6 L 216.6,151.2 L 221.1,151.7 L 232.1,159.7 L 238.8,177.1 L 237.3,182.5 L 241.3,189.6 L 239.6,190.3 L 238.6,191.1 L 239.9,191.2 L 240.9,190.6 L 239.6,192.6 L 230.1,194.5 L 229.1,193.5 L 229.5,193.1 L 229.3,192.9 L 228.4,194.7 L 229.3,194.6 L 226.8,195.3 L 227.2,195.1 L 227.3,194.9 L 226.6,194.1 L 226.2,195.6 L 224.8,194.9 L 215.6,200.1 L 215.0,199.9 L 215.2,198.0 L 214.7,198.1 L 214.9,197.1 L 214.8,196.7 L 214.5,196.7 L 213.3,197.7 L 214.6,198.9 L 213.0,199.2 L 213.7,200.8 L 211.5,199.7 L 212.8,201.0 L 199.9,206.2 L 191.1,212.4 L 190.2,211.0 L 189.2,211.0 L 190.5,212.7 L 184.9,219.4 L 182.9,215.9 L 181.9,215.6 L 180.6,216.2 L 182.4,216.0 L 183.0,219.3 L 184.5,220.6 L 182.2,223.8 L 181.1,223.3 L 179.5,224.4 L 179.0,225.4 L 177.9,223.4 L 178.9,225.5 L 180.9,224.6 L 172.2,233.9 L 170.4,233.2 L 171.6,234.7 L 169.2,237.0 L 169.3,239.8 L 166.2,239.5 L 166.7,240.0 L 168.6,240.7 L 167.3,241.9 L 165.5,239.6 L 166.6,242.3 L 163.1,242.9 L 162.6,241.1 L 164.2,239.2 L 161.7,237.9 L 163.4,234.5 L 161.2,228.7 L 156.5,225.4 L 154.7,221.7 L 145.5,217.8 L 141.4,210.6 L 142.2,201.7 L 140.0,190.7 L 141.3,187.7 L 137.0,180.6 L 139.9,178.5 L 140.9,172.0 L 143.7,169.1 L 146.8,170.3 L 154.4,166.7 L 155.4,151.2 L 166.5,152.2 L 166.3,149.9 L 168.5,147.3 L 174.1,144.9 L 177.5,139.6 L 190.8,140.2 Z"/>
  <circle cx="69.1" cy="438.3" r="5.5" fill="#D44B1A" stroke="#fff" stroke-width="0.8"/>
  <text class="lbl lbh" x="247.0" y="69.8">Cabo Delgado</text>
  <text class="lbl " x="73.3" y="363.5">Gaza</text>
  <text class="lbl lbl2" x="122.6" y="351.5">Inhambane</text>
  <text class="lbl " x="90.6" y="245.1">Manica</text>
  <text class="lbl " x="66.4" y="419.3">Maputo</text>
  <text class="lbl " x="66.4" y="429.3">Prov.</text>
  <line x1="76.0" y1="438.0" x2="100.0" y2="438.0" stroke="#D44B1A" stroke-width="0.6"/>
  <text class="lbl" x="114.0" y="435.5" style="font-size:6px;fill:#D44B1A;font-weight:600;text-anchor:start;">Maputo</text>
  <text class="lbl" x="114.0" y="442.5" style="font-size:6px;fill:#D44B1A;font-weight:600;text-anchor:start;">Cidade</text>
  <text class="lbl " x="238.6" y="144.2">Nampula</text>
  <text class="lbl " x="167.5" y="97.0">Niassa</text>
  <text class="lbl lbl2" x="130.2" y="247.0">Sofala</text>
  <text class="lbl " x="63.5" y="161.9">Tete</text>
  <text class="lbl " x="189.6" y="191.0">Zambézia</text>
  <text class="sea" transform="rotate(-90,285,265)" x="285" y="265">Oceano Índico</text>
  <text class="ttl" x="8" y="14">Moçambique — Energia</text>
  <text class="sub" x="8" y="21">Províncias por papel no sector energético</text>
  <rect x="8" y="468" width="9" height="9" rx="1.5" fill="#D44B1A"/>
  <text class="leg" x="20" y="472.5" dominant-baseline="central">Centros-chave de energia</text>
  <rect x="8" y="482" width="9" height="9" rx="1.5" fill="#f2c9ba" stroke="#D44B1A" stroke-width="0.5"/>
  <text class="leg" x="20" y="486.5" dominant-baseline="central">Hubs regionais</text>
  <rect x="8" y="496" width="9" height="9" rx="1.5" fill="#E1DFDD"/>
  <text class="leg" x="20" y="500.5" dominant-baseline="central">Outras províncias</text>
</svg>