<svg width="34" height="34" viewBox="0 0 34 34" fill="none" xmlns="http://www.w3.org/2000/svg">
<rect x="1" y="1" width="32" height="32" rx="16" fill="#FFFCF6"/>
<rect x="0.5" y="0.5" width="33" height="33" rx="16.5" stroke="#9D8554" stroke-opacity="0.14"/>
<path d="M20.8461 27.9197C19.808 27.9197 18.9212 27.6908 18.1859 27.2329C17.465 26.775 16.8667 26.0424 16.3909 25.035L18.7266 23.3408C18.8996 23.7071 19.1447 23.9971 19.4619 24.2108C19.7791 24.4245 20.1107 24.5313 20.4568 24.5313C21.0191 24.5313 21.4372 24.3558 21.7111 24.0047C21.9995 23.6537 22.1437 22.9897 22.1437 22.0129V12.7634H25.8636V22.3334C25.8636 23.356 25.6833 24.2947 25.3229 25.1495C24.9624 25.9889 24.4073 26.6605 23.6576 27.1642C22.9223 27.6679 21.9851 27.9197 20.8461 27.9197Z" fill="#D3250A"/>
<path d="M9 21.2892V7.08014H12.7891L15.8892 13.4196C16.1332 13.9005 16.3629 14.4178 16.5781 14.9716C16.7934 15.5108 17.0087 16.0573 17.224 16.6111H17.3101C17.224 15.8387 17.1235 14.9643 17.0087 13.9879C16.8939 12.9969 16.8365 12.0642 16.8365 11.1898V7.08014H20.3672V21.2892H16.5781L13.478 14.9498C13.2484 14.4688 13.0187 13.9515 12.7891 13.3977C12.5738 12.8439 12.3585 12.2974 12.1432 11.7582H12.0571C12.1432 12.5597 12.2437 13.4487 12.3585 14.4251C12.4733 15.387 12.5307 16.3051 12.5307 17.1795V21.2892H9Z" fill="#D3250A"/>
</svg>
