<svg width="34" height="34" viewBox="0 0 34 34" fill="none" xmlns="http://www.w3.org/2000/svg">
<rect x="1" y="1" width="32" height="32" rx="16" fill="#F6F6F6"/>
<rect x="0.5" y="0.5" width="33" height="33" rx="16.5" stroke="#7A7A7A" stroke-opacity="0.14"/>
<path d="M15.1186 15.8828H12.9411C12.9013 15.6011 12.8201 15.3509 12.6974 15.1321C12.5748 14.91 12.4174 14.7211 12.2251 14.5653C12.0329 14.4096 11.8108 14.2902 11.5589 14.2074C11.3104 14.1245 11.0402 14.0831 10.7486 14.0831C10.2216 14.0831 9.76255 14.214 9.37145 14.4759C8.98035 14.7344 8.67708 15.1122 8.46165 15.6094C8.24621 16.1032 8.13849 16.7031 8.13849 17.4091C8.13849 18.1349 8.24621 18.7448 8.46165 19.2386C8.6804 19.7325 8.98532 20.1054 9.37642 20.3572C9.76752 20.6091 10.2199 20.7351 10.7337 20.7351C11.022 20.7351 11.2888 20.697 11.5341 20.6207C11.7827 20.5445 12.0031 20.4335 12.1953 20.2876C12.3875 20.1385 12.5466 19.9579 12.6726 19.7457C12.8018 19.5336 12.8913 19.2917 12.9411 19.0199L15.1186 19.0298C15.0623 19.4972 14.9214 19.9479 14.696 20.3821C14.474 20.813 14.174 21.1991 13.7962 21.5405C13.4216 21.8786 12.9742 22.147 12.4538 22.3459C11.9368 22.5414 11.3518 22.6392 10.6989 22.6392C9.79072 22.6392 8.97869 22.4337 8.26278 22.0227C7.55019 21.6117 6.98674 21.0168 6.57244 20.2379C6.16146 19.459 5.95597 18.5161 5.95597 17.4091C5.95597 16.2988 6.16477 15.3542 6.58239 14.5753C7 13.7964 7.56676 13.2031 8.28267 12.7955C8.99858 12.3845 9.80398 12.179 10.6989 12.179C11.2888 12.179 11.8357 12.2618 12.3395 12.4276C12.8466 12.5933 13.2957 12.8352 13.6868 13.1534C14.0779 13.4683 14.3961 13.8544 14.6413 14.3118C14.8899 14.7692 15.049 15.2929 15.1186 15.8828ZM25.646 15.8828H23.4684C23.4286 15.6011 23.3474 15.3509 23.2248 15.1321C23.1022 14.91 22.9447 14.7211 22.7525 14.5653C22.5603 14.4096 22.3382 14.2902 22.0863 14.2074C21.8377 14.1245 21.5676 14.0831 21.2759 14.0831C20.7489 14.0831 20.2899 14.214 19.8988 14.4759C19.5077 14.7344 19.2044 15.1122 18.989 15.6094C18.7736 16.1032 18.6658 16.7031 18.6658 17.4091C18.6658 18.1349 18.7736 18.7448 18.989 19.2386C19.2077 19.7325 19.5127 20.1054 19.9038 20.3572C20.2949 20.6091 20.7473 20.7351 21.261 20.7351C21.5494 20.7351 21.8162 20.697 22.0614 20.6207C22.31 20.5445 22.5304 20.4335 22.7227 20.2876C22.9149 20.1385 23.074 19.9579 23.1999 19.7457C23.3292 19.5336 23.4187 19.2917 23.4684 19.0199L25.646 19.0298C25.5896 19.4972 25.4487 19.9479 25.2234 20.3821C25.0013 20.813 24.7013 21.1991 24.3235 21.5405C23.949 21.8786 23.5015 22.147 22.9812 22.3459C22.4641 22.5414 21.8791 22.6392 21.2262 22.6392C20.3181 22.6392 19.506 22.4337 18.7901 22.0227C18.0775 21.6117 17.5141 21.0168 17.0998 20.2379C16.6888 19.459 16.4833 18.5161 16.4833 17.4091C16.4833 16.2988 16.6921 15.3542 17.1097 14.5753C17.5273 13.7964 18.0941 13.2031 18.81 12.7955C19.5259 12.3845 20.3313 12.179 21.2262 12.179C21.8162 12.179 22.363 12.2618 22.8668 12.4276C23.3739 12.5933 23.823 12.8352 24.2141 13.1534C24.6052 13.4683 24.9234 13.8544 25.1687 14.3118C25.4173 14.7692 25.5763 15.2929 25.646 15.8828Z" fill="#002147"/>
<path d="M28.3878 22.6293C28.0597 22.6293 27.7779 22.5133 27.5426 22.2812C27.3106 22.0459 27.1946 21.7642 27.1946 21.4361C27.1946 21.1113 27.3106 20.8329 27.5426 20.6009C27.7779 20.3688 28.0597 20.2528 28.3878 20.2528C28.706 20.2528 28.9844 20.3688 29.223 20.6009C29.4616 20.8329 29.581 21.1113 29.581 21.4361C29.581 21.6548 29.5246 21.8554 29.4119 22.0376C29.3026 22.2166 29.1584 22.3608 28.9794 22.4702C28.8004 22.5762 28.6032 22.6293 28.3878 22.6293Z" fill="#00FF91"/>
</svg>
